<svg width="460" height="460" fill="none" xmlns="http://www.w3.org/2000/svg"><path d="M230 460c127.026 0 230-102.974 230-230C460 102.975 357.026 0 230 0 102.975 0 0 102.975 0 230c0 127.026 102.975 230 230 230z" fill="url(#paint0_linear)"/><path d="M364.148 90.518c-19.317 38.881-57.107 133.154-53.738 199.199m-2.778 19.875c-14.439-67.745-24.83-207.227 49.124-223.19 73.953-15.962-1.935 142.142-49.124 223.19zM327.969 119.868c4.053 5.558 11.799 19.151 10.351 29.064M376.895 107.441c-6.764 1.462-22.712 9.618-32.393 30.545M309.708 152.687c5.225 7.58 15.567 26.573 15.138 41.906M361.08 180.089c-10.688 7.32-34.088 25.281-42.181 38.572M302.373 209.966c4.049 3.94 12.016 16.168 11.484 33.563M328.309 246.354c-5.488 5.192-16.789 17.708-18.093 26.241" stroke="#A770E0" stroke-width="3"/><path d="M409.579 257.105c-18.296 20.25-57.182 70.884-66.363 111.428m-5.058 11.556c2.77-43.453 20.178-129.633 67.647-126.73 47.468 2.903-25.319 85.696-67.647 126.73zM382.697 268.722c1.509 4.052 3.888 13.595 1.327 19.348M414.419 269.513c-4.342-.264-15.38 1.963-24.794 12.983M366.07 285.482c1.875 5.475 4.907 18.727 2.042 27.933M392.505 310.793c-7.712 2.614-24.924 9.509-32.081 16.178M351.9 318.901c1.782 3.072 4.525 11.826 1.248 22.264M361.415 345.33c-4.203 2.209-13.17 7.864-15.408 12.807" stroke="#AF77E8" stroke-width="3"/><path d="M130.927 47.852c5.949 26.634 24.792 87.633 52.57 118.56m6.507 10.807c-33.858-27.377-94.122-91.395-64.316-128.453 29.806-37.058 55.296 70.194 64.316 128.453zM124.869 76.502c4.179 1.111 13.34 4.686 16.555 10.1M143.849 51.074c-2.725 3.39-7.288 13.684-3.736 27.736M128.935 99.758c5.551 1.635 18.118 6.82 23.975 14.479M164.869 92.816c-2.324 7.804-6.647 25.836-5.341 35.53M148.016 130.638c3.536.322 12.266 3.143 18.889 11.85M175.082 138.149c-.627 4.707-1.194 15.293 1.545 19.977" stroke="#894CC8" stroke-width="3"/><path d="M35.789 189.398c31.944 29.401 100.95 103.924 121.424 166.806m9.702 17.567c-10.744-68.429-50.924-202.401-125.695-190.86-74.771 11.542 52.642 132.049 125.695 190.86zM80.072 203.868c-1.798 6.64-4.17 22.105.727 30.844M29.937 209.761c6.84-1.054 24.65.86 41.175 16.94M108.862 227.986c-2.169 8.948-5.034 30.383.85 44.548M70.688 271.948c12.599 3.013 40.874 11.418 53.186 20.935M136.197 278.853c-2.373 5.128-5.439 19.396 1.278 35.451M124.99 322.111c6.981 2.885 22.012 10.532 26.281 18.034" stroke="#8950C2" stroke-width="3"/><path d="M275.277 70.098s23.883 13.7 26.182 43.401c4.035 52.268 3.8 88.725 5.442 105.428 1.642 16.985 7.179 52.362 6.897 53.441-.281 1.08-.656-1.501-.656-1.501s-114.25 33.125-137.85 6.522c-23.601-26.604-27.542-76.667-19.425-93.511 8.117-16.844 6.522-43.307 9.759-63.388 3.378-20.833 20.27-54.333 36.222-61.606 4.458-1.924 45.747-18.11 73.429 11.214z" fill="#DAC896"/><path d="M372.026 340.824s14.639 32.985-28.903 30.123c-43.541-2.863-29.7-27.261-29.7-27.261s20.363-15.859 27.683-14.263c7.272 1.642 30.92 11.401 30.92 11.401z" fill="#B43944"/><path d="M292.356 400.271c-1.736 1.361 6.889 30.619 12.144 47.229 16.234-5.583 31.689-12.632 46-21.5l13.502-85.692-48.045-8.68c0-.047-21.161 66.72-23.601 68.643z" fill="#FDE0D9"/><path opacity=".39" d="M264.58 88.444c-7.977-7.46-17.689-11.824-28.152-11.824-27.213 0-49.266 29.512-49.266 65.969 0 .797 0 1.595.047 2.346 4.317-17.501 14.452-37.301 38.099-39.929 16.375-1.877 29.419-8.727 39.272-16.563z" fill="#FDE0D9"/><path d="M298.221 147.046c-1.548 8.68-5.724 15.202-9.337 14.545-3.613-.657-6.756-9.431-5.255-18.111.704-3.894 2.065-6.897 3.519-9.478 1.783-3.143 5.255-4.175 7.273-3.847 3.659.657 5.348 8.211 3.8 16.891z" fill="#FFE5DF"/><path opacity=".6" d="M317.599 323.839s-8.868 28.011-15.812 48.234l-.61 10.228s5.677 20.739 18.721-4.082c12.762-24.304 40.351-18.955 41.477-18.721l4.27-26.979-48.046-8.68z" fill="#FDE0D9"/><path d="M284.333 126.261s.047.094.141.234c.563 1.079 3.096 5.584 4.035 5.725 1.079.14-.047 2.064-.047 2.064l-2.862 4.457-5.49-3.566 4.223-8.914zM280.016 249.237c-13.841-5.302-17.782-53.348-17.782-53.348l-1.642 1.643-22.428 7.225-24.117-7.788-1.876.14s.422 41.806-13.279 45.606c-11.073 3.05 16.375 10.041 32.609 12.809.657 1.126 1.549 1.736 2.675 1.689.188 0 .375 0 .563-.047 1.267-.093 2.956-.281 4.926-.563.094 0 .235 0 .329.047.188 0 .375 0 .563.047.563 0 1.079-.141 1.548-.422 16-2.674 48.891-2.862 37.911-7.038z" fill="#FDE0D9"/><path opacity=".6" d="M280.251 251.958c.563-.14.985-.328 1.314-.469-.892-.422-1.924-.797-3.05-1.173.563.61 1.173 1.173 1.736 1.642z" fill="#FDE0D9"/><path opacity=".6" d="M280.016 249.237c-13.841-5.302-17.782-53.348-17.782-53.348l-1.642 1.643-22.428 7.225-24.117-7.788-1.876.14s-.188 10.041-.423 14.498c3.895-.046 27.683 2.44 39.084 10.839 14.123 10.416 18.627 29.465 21.161 33.125 4.974-.751 12.105-4.786 8.023-6.334z" fill="#FDE0D9"/><path d="M285.694 142.542c0 8.915.703 18.205-2.018 25.665-3.894 10.463-12.34 18.345-19.284 25.383-8.258 8.352-16.797 14.921-27.964 14.921-12.809 0-22.85-7.742-31.624-18.44-9.853-12.058-17.642-28.198-17.642-47.482 0-36.41 22.053-65.97 49.266-65.97 27.213 0 49.266 29.513 49.266 65.923z" fill="#FFE5DF"/><path d="M251.724 127.997l-.329-2.534 16.282-1.267 9.853 4.739-1.643 2.252-8.914-4.363-15.249 1.173zM223.947 128.654l-14.545-3.848-9.9 2.675-1.032-2.44 10.885-2.956 15.578 4.082-.986 2.487z" fill="#D6BF80"/><path d="M269.835 66.016s-2.159 28.902-45.606 33.782c-43.401 4.88-41.242 67.564-41.242 67.564l1.36-88.35s41.524-25.664 42.322-25.664c.797 0 43.166 12.668 43.166 12.668z" fill="#DAC896"/><path d="M290.104 152.583l-.328-.704c4.316-2.065 2.017-14.639 1.97-14.78l.798-.141c.047.516 2.44 13.279-2.44 15.625z" fill="#E1BCB5"/><path d="M292.028 147.422c-1.971-.423-3.378-4.129-3.566-4.505l.751-.281c.375 1.032 1.642 3.706 2.956 4.035l-.141.751z" fill="#E1BCB5"/><path d="M178.998 145.028c1.549 8.681 5.725 15.202 9.337 14.546 3.613-.657 6.757-9.431 5.255-18.111-.703-3.895-2.064-6.898-3.519-9.478-1.783-3.144-5.255-4.176-7.272-3.848-3.613.657-5.302 8.211-3.801 16.891z" fill="#FFE5DF"/><path d="M187.162 150.518c-4.879-2.346-2.533-15.108-2.439-15.671l.797.141c-.047.14-2.346 12.715 1.971 14.779l-.329.751z" fill="#E1BCB5"/><path d="M185.192 145.404l-.188-.798c1.314-.281 2.581-3.003 2.956-4.035l.751.282c-.094.422-1.502 4.082-3.519 4.551z" fill="#E1BCB5"/><path d="M63.435 305.4s.563 28.668 12.387 36.409c11.824 7.742 29.7-16.281 29.7-16.281l14.264-39.084-43.166 18.299-13.185.657z" fill="#B43944"/><path d="M347.158 269.178c-2.44-6.287-3.659-28.48-39.881-23.601-36.222 4.88-15.859 1.22-37.067 2.44-6.662.375-12.574 1.032-17.548 1.689-12.387 1.689-25.008.657-36.926-3.143l-18.439-5.865s-45.184-17.501-65.124-8.962c-19.941 8.539-31.765 45.184-43.542 56.163C76.807 298.878 63.388 305.4 63.388 305.4s23.601-2.018 31.343 6.897c7.741 8.962 18.298 33.782 18.298 33.782l17.501 2.862 16.047 95.341c25.712 9.947 53.629 15.39 82.86 15.39 27.729 0 54.43-4.663 79.063-13.672 4.739-28.902 13.65-84.954 13.369-89.739-.423-6.522 44.761-9.384 44.761-9.384h7.319c-2.439-10.182-5.302-19.847-8.961-28.105-7.46-17.079-16.047-45.043-17.83-49.594z" fill="#DB525F"/><path d="M87.646 301.13s-22.005 69.629-20.739 88.537c1.267 18.909 3.05 44.574 19.519 43.964 16.469-.61 21.301 2.628 52.456-105.428 31.155-108.056 10.041-47.014 10.041-47.014s-9.759-19.753-14.029-11.213c-4.27 8.539-30.216 57.101-30.216 57.101l-1.736-17.407-15.296-8.54z" fill="#FFE5DF"/><path opacity=".6" d="M102.332 311.64l-15.25-8.539s-1.031 3.237-2.627 8.539c4.223 2.628 15.202 10.369 17.971 20.504.516-1.361 1.923-4.786 2.486-6.146l-2.58-14.358z" fill="#FDE0D9"/><path d="M177.122 169.145s-3.285-2.111-10.839-4.363c-11.214-3.332-31.858-6.944-65.265-4.364l14.404 91.822 57.008 2.627s15.999 2.44 22.052-.422c6.052-2.862 71.693 4.927 71.693 4.927l-5.49-92.714-83.563 2.487z" fill="#562885"/><path d="M115.422 159.622c-4.504.141-9.337.376-14.404.751l2.252 14.451 12.152-15.202zM113.499 239.947l1.923 12.246 12.809.563-14.732-12.809zM266.081 259.372l-.798-13.795-15.342 12.059a790.55 790.55 0 0016.14 1.736zM261.624 182.001l-.939-15.343-19.049.61 19.988 14.733zM195.139 253.178l-4.692-84.502-13.372.469s-3.285-2.111-10.839-4.363c-.375-.094-.751-.235-1.126-.329l.516 3.285 6.522 86.285s.141.328.328.844c1.267.188 16.141 2.3 21.959-.422.188-.094.375-.141.563-.234l.141-1.033z" fill="#3F1C4B"/><path d="M87.88 383.333l-.797-.047c1.032-15.952 17.266-57.007 17.407-57.429l.751.281c-.141.423-16.375 41.336-17.36 57.195z" fill="#E1BCB5"/><path d="M182.095 230.094c-2.862 0-10.181 15.483-11.401 18.721-.845 2.205-5.208 5.912-7.977 8.07-.61.469-1.501-.141-1.22-.892l3.895-10.04s9.759-18.299 6.521-19.941c-2.252-1.126-6.099 4.457-8.257 7.929a43.697 43.697 0 01-4.082 5.584l-12.012 13.841c-.469.516-1.36.235-1.36-.469l-.141-3.988c-.141-4.927.469-9.337 2.393-13.842.61-1.407 1.595-2.862 1.876-3.378 2.44-4.598 4.88-13.044 2.018-14.263-2.393-1.033-10.182 12.058-12.528 16.187a8.185 8.185 0 00-.985 2.58l-3.472 16.61s-.047 0-.141-.047c-3.002 0-5.536-.047-8.539-.047-.094.469-.047 1.126.047 1.83.422 4.457 8.962 26.463 8.962 26.463s8.351 12.199 13.231 10.181c3.66-1.501 14.029-14.639 19.002-21.161 1.783-2.346 3.332-4.926 4.458-7.647l10.087-23.695c.047-.047 2.487-8.586-.375-8.586z" fill="#FDE0D9"/><path d="M74.415 301.881l-3.613-.61c-4.41 2.674-7.367 4.129-7.367 4.129s8.633-.751 17.173.657c8.586 1.173 17.782 4.082 21.536 10.885 1.173 2.111 1.783 3.05 1.877 4.035.563 5.443 4.739-16.14 4.739-16.14l1.079-9.478-22.522-3.519-12.902 10.041z" fill="#DB525F"/><path d="M313.001 302.96s16.703 22.381 3.66 92.807l-3.66-92.807z" fill="#B43944"/><path d="M212.499 143.152c1.451 0 2.627-1.87 2.627-4.176s-1.176-4.176-2.627-4.176c-1.451 0-2.628 1.87-2.628 4.176s1.177 4.176 2.628 4.176zM256.838 145.451c1.451 0 2.628-1.87 2.628-4.176s-1.177-4.176-2.628-4.176-2.627 1.87-2.627 4.176 1.176 4.176 2.627 4.176z" fill="#282827"/><path d="M228.673 159.213l5.872 3.902 7.396-2.185" fill="#E7C0BA"/><defs><linearGradient id="paint0_linear" x1="99.868" y1="0" x2="563.343" y2="58.102" gradientUnits="userSpaceOnUse"><stop stop-color="#9156CD"/><stop offset="1" stop-color="#C296F0"/></linearGradient></defs></svg>