<svg width="29" height="29" fill="none" xmlns="http://www.w3.org/2000/svg"><g clip-path="url(#clip0)"><path d="M12.725 8.343c.568.758.852 1.662.852 2.72 0 1.085-.284 1.962-.86 2.623-.322.367-.794.707-1.418 1.011.947.333 1.661.857 2.148 1.573.481.715.724 1.586.724 2.609 0 1.055-.276 2.003-.829 2.84a4.996 4.996 0 01-1.316 1.4c-.592.434-1.291.732-2.1.894-.808.161-1.682.24-2.626.24h-8.374V6.444h8.982c2.266.033 3.87.665 4.817 1.9zM2.631 9.537v3.93H7.15c.804 0 1.46-.148 1.966-.442.502-.294.756-.816.756-1.563 0-.833-.333-1.379-.998-1.647-.575-.184-1.309-.278-2.198-.278H2.631zm0 6.877v4.75h4.513c.807 0 1.436-.105 1.884-.315.816-.39 1.222-1.128 1.222-2.224 0-.93-.393-1.565-1.183-1.912-.443-.191-1.064-.294-1.86-.3H2.63zm22.775-5.062c.961.411 1.75 1.061 2.373 1.949.567.783.932 1.69 1.098 2.722.097.603.135 1.477.12 2.615H18.983c.06 1.32.534 2.248 1.44 2.777.549.33 1.207.497 1.983.497.816 0 1.482-.201 1.993-.603.282-.219.528-.52.74-.905h3.67c-.098.78-.544 1.573-1.331 2.38-1.231 1.279-2.955 1.92-5.171 1.92-1.831 0-3.444-.54-4.84-1.62-1.403-1.08-2.1-2.837-2.1-5.271 0-2.283.631-4.034 1.892-5.252 1.265-1.214 2.9-1.826 4.914-1.826 1.2-.002 2.277.205 3.233.617zm-5.374 2.975c-.507.502-.827 1.181-.959 2.038h6.194c-.066-.915-.387-1.607-.956-2.084-.578-.473-1.286-.708-2.134-.708-.92.002-1.637.254-2.145.754zm-1.887-4.835h7.964V7.275h-7.964v2.217z" fill="#1976D2"/></g><defs><clipPath id="clip0"><path fill="#fff" d="M0 0h29v29H0z"/></clipPath></defs></svg>