<svg width="50" height="50" fill="none" xmlns="http://www.w3.org/2000/svg"><g clip-path="url(#clip0)" fill="#fff"><path d="M38.665 16.506c-6.372 0-9.397 3.377-10.813 6.21-.946 1.893-1.304 3.772-1.44 4.94-.287-1.133-.802-2.364-1.722-3.336a5.382 5.382 0 00-1.574-1.157c1.31-.88 2.6-2.505 2.6-5.497 0-2.772-.949-5.06-2.744-6.615-1.644-1.425-3.91-2.178-6.554-2.178H.806A.806.806 0 000 9.68v30.004c0 .446.36.807.806.807H16.523c.69 0 3.12-.093 5.468-1.294 1.939-.991 4.207-2.972 4.679-6.86.377 1.663 1.148 3.64 2.707 5.31 2.146 2.3 5.264 3.467 9.267 3.47.058.004.207.01.431.01 1.011 0 3.619-.122 5.99-1.247 3.056-1.45 4.672-4.06 4.672-7.55a.806.806 0 00-.807-.806h-5.279a.795.795 0 00-.806.838c.001.03.011.74-.596 1.363-.656.672-1.834 1.028-3.408 1.028l-.051.001c-.01.001-.058.003-.134.003-.33 0-1.482-.046-2.488-.644-1.008-.6-1.598-1.597-1.758-2.97h14.699c.405 0 .747-.3.8-.703.034-.263.8-6.499-2.78-10.577-1.955-2.227-4.803-3.357-8.464-3.357zm-4.117 9.021c.427-1.164 1.533-3.012 4.235-3.012 1.139 0 2.036.32 2.665.953.623.626.894 1.456 1.012 2.06h-7.912zM8.493 27.14h7.93c.24.002 2.355.11 2.355 3.314 0 2.095-.866 3.049-2.807 3.092H8.493V27.14zm7.384-6.24H8.493v-5.083h7.91c.222.009 1.331.165 1.331 2.316 0 2.767-.987 2.767-1.857 2.767z"/><path d="M32.208 15.461h12.38a.806.806 0 00.807-.806v-3.694a.806.806 0 00-.806-.806h-12.38a.806.806 0 00-.807.806v3.694c0 .445.361.806.806.806z"/></g><defs><clipPath id="clip0"><path fill="#fff" d="M0 0h50v50H0z"/></clipPath></defs></svg>