<svg width="50" height="34" viewBox="0 0 50 34" fill="none" xmlns="http://www.w3.org/2000/svg">
<path d="M38.665 8.50654C32.2929 8.50654 29.2678 11.8834 27.8521 14.7162C26.9062 16.6093 26.5477 18.4877 26.4119 19.6562C26.1247 18.5235 25.6099 17.2922 24.6904 16.3203C24.2295 15.8331 23.7037 15.4468 23.1162 15.1625C24.4261 14.2835 25.716 12.6583 25.716 9.66645C25.716 6.8944 24.767 4.60666 22.9718 3.05065C21.3283 1.62624 19.0621 0.87323 16.4181 0.87323H0.806392C0.360941 0.87323 0 1.23433 0 1.67962V31.6842C0 32.1295 0.360941 32.4906 0.806392 32.4906H16.4096C16.4289 32.4909 16.4673 32.4917 16.523 32.4917C16.5231 32.4917 16.523 32.4917 16.5231 32.4917C17.2124 32.4917 19.6437 32.3983 21.9914 31.1971C23.93 30.2056 26.1984 28.2252 26.6698 24.3371C27.0475 26.0004 27.8181 27.977 29.3769 29.6472C31.5225 31.9463 34.6405 33.1139 38.6444 33.1179C38.7021 33.1207 38.8513 33.1265 39.0755 33.1265C40.0864 33.1265 42.6939 33.005 45.0655 31.88C48.1213 30.4302 49.7366 27.8196 49.7366 24.3302C49.7366 23.8848 49.3757 23.5238 48.9302 23.5238H43.651C43.4297 23.5238 43.2178 23.6093 43.0655 23.7699C42.9133 23.9306 42.8334 24.1413 42.8452 24.3623C42.846 24.3921 42.8565 25.1019 42.2486 25.7253C41.5932 26.3975 40.4146 26.7528 38.8407 26.7528C38.8247 26.7528 38.8057 26.7534 38.7897 26.7544C38.7792 26.755 38.732 26.7573 38.6555 26.7573C38.3262 26.7573 37.174 26.7108 36.1683 26.1128C35.1595 25.5129 34.5699 24.5157 34.4097 23.1424H49.1086C49.5136 23.1424 49.8558 22.8421 49.9082 22.4405C49.9426 22.177 50.7095 15.9413 47.1291 11.8629C45.1736 9.63581 42.3259 8.50654 38.665 8.50654ZM34.5476 17.5272C34.9755 16.3629 36.0807 14.5146 38.7826 14.5146C39.922 14.5146 40.8191 14.8354 41.4484 15.4681C42.0711 16.0942 42.342 16.9237 42.4598 17.5272H34.5476ZM8.4934 19.1399H16.4227C16.6638 19.1417 18.778 19.2501 18.778 22.4536C18.778 24.5487 17.9124 25.5029 15.9714 25.5464H8.4934V19.1399ZM15.8766 12.9002H8.4934V7.81675L16.4022 7.81643C16.6246 7.82594 17.7342 7.98238 17.7342 10.133C17.7342 12.9002 16.7473 12.9002 15.8766 12.9002Z" fill="white"/>
<path d="M32.2082 7.4615H44.5885C45.0339 7.4615 45.3949 7.1004 45.3949 6.65511V2.96136C45.3949 2.51607 45.0339 2.15497 44.5885 2.15497H32.2082C31.7628 2.15497 31.4019 2.51607 31.4019 2.96136V6.65511C31.4019 7.1004 31.763 7.4615 32.2082 7.4615Z" fill="white"/>
</svg>
