<svg width="46" height="46" fill="none" xmlns="http://www.w3.org/2000/svg"><path d="M9.922 10.585c.221 0 .44-.09.595-.247a.848.848 0 00.247-.596.848.848 0 00-.246-.595.848.848 0 00-.596-.247.848.848 0 00-.595.247.848.848 0 00-.247.595c0 .222.09.44.247.596a.848.848 0 00.595.247zM13.08 10.585h5.602a.842.842 0 100-1.685H13.08a.842.842 0 100 1.685zM9.922 15.975h8.76a.842.842 0 100-1.684h-8.76a.842.842 0 100 1.684zM9.922 21.366h8.76a.842.842 0 100-1.685h-8.76a.842.842 0 100 1.685zM9.922 26.757h8.76a.842.842 0 100-1.685h-8.76a.842.842 0 100 1.685zM19.524 31.305a.842.842 0 00-.842-.842h-8.76a.842.842 0 100 1.684h8.76a.842.842 0 00.842-.842zM26.431 9.742c0 .466.377.843.842.843h8.76a.842.842 0 100-1.685h-8.76a.842.842 0 00-.842.842zM36.033 14.29h-8.76a.842.842 0 000 1.685h8.76a.842.842 0 100-1.684zM36.033 19.681h-8.76a.842.842 0 000 1.685h8.76a.842.842 0 100-1.685zM36.033 25.072h-8.76a.842.842 0 000 1.685h8.76a.842.842 0 100-1.685zM36.033 30.463h-8.76a.842.842 0 000 1.684h8.76a.842.842 0 100-1.684z" fill="#DB525F"/><path d="M43.698 9.153H41.17V5.447a.842.842 0 00-.842-.843H28.034a6.303 6.303 0 00-5.056 2.527 6.303 6.303 0 00-5.057-2.527H5.626a.842.842 0 00-.842.843v3.706H2.257a.842.842 0 00-.842.842V40.15c0 .465.377.842.842.842h29.087a.842.842 0 100-1.684H23.75a.057.057 0 00.003-.008 4.626 4.626 0 014.282-2.856H40.33a.842.842 0 00.842-.842V10.837h1.684v28.47H38.23a.842.842 0 100 1.684h5.468a.842.842 0 00.842-.842V9.995a.842.842 0 00-.842-.842zM6.468 6.289h11.453a4.625 4.625 0 014.214 2.702v27.373a6.309 6.309 0 00-4.214-1.606H6.469V6.29zM3.1 10.837h1.684v24.764c0 .465.377.842.842.842h12.295a4.626 4.626 0 014.285 2.864H3.1v-28.47zm36.386 23.921H28.034c-1.591 0-3.08.59-4.214 1.606V8.99a4.625 4.625 0 014.214-2.702h11.452v28.47z" fill="#DB525F"/><path d="M34.812 39.307a.848.848 0 00-.596.246.848.848 0 00-.247.596c0 .221.09.439.247.596a.848.848 0 00.596.246c.221 0 .439-.09.595-.246a.848.848 0 00.247-.596.848.848 0 00-.247-.596.848.848 0 00-.595-.246z" fill="#DB525F"/></svg>