<svg width="478" height="478" fill="none" xmlns="http://www.w3.org/2000/svg"><path d="M239 478c131.996 0 239-107.004 239-239C478 107.004 370.996 0 239 0 107.004 0 0 107.004 0 239c0 131.996 107.004 239 239 239z" fill="url(#paint0_linear)"/><path d="M410.59 121.153c-22.469 45.227-66.428 154.887-62.509 231.713m-3.231 23.119c-16.796-78.803-28.883-241.051 57.141-259.62 86.025-18.568-2.251 165.343-57.141 259.62zM368.506 155.293c4.715 6.465 13.724 22.277 12.041 33.808M425.418 140.837c-7.868 1.701-26.419 11.189-37.681 35.532M347.265 193.469c6.077 8.817 18.108 30.911 17.608 48.746M407.021 225.344c-12.433 8.514-39.651 29.407-49.066 44.867M338.732 260.097c4.71 4.583 13.977 18.807 13.359 39.041M368.901 302.425c-6.383 6.039-19.53 20.598-21.046 30.524" stroke="#A770E0" stroke-width="3"/><path d="M98.049 85.242c21.09 36.761 63.414 126.421 63.983 190.976m3.866 19.205c10.119-66.857 12.109-203.381-60.886-214.623-72.995-11.241 10.176 138.398 60.886 214.623zM135.015 111.732c-3.626 5.652-10.38 19.35-8.392 28.925M86.614 102.476c6.676 1.03 22.693 8.048 33.347 27.875M154.723 142.647c-4.649 7.692-13.619 26.803-12.306 41.719M106.263 172.346c10.842 6.509 34.691 22.647 43.353 35.126M165.212 198.035c-3.716 4.075-10.765 16.456-9.233 33.376M142.061 235.007c5.65 4.738 17.393 16.276 19.162 24.515M34.09 222.71c30.511 18.883 98.138 68.612 124.558 116.459m10.614 12.745c-19.388-53.865-72.886-156.34-131.774-135.316-58.889 21.024 63.312 98.971 131.774 135.316zM72.288 227.551c-.424 5.669.062 18.591 5.4 24.92M32.515 240.149c5.387-1.921 20.141-3.145 36.06 7.331M99.416 242.638c-.365 7.6.65 25.445 7.635 36.025M75.285 284.271c10.696.481 34.956 2.895 46.432 8.7M129.532 279.663c-1.126 4.531-1.391 16.59 6.564 28.574M127.179 316.519c6.117 1.254 19.508 5.117 24.143 10.541" stroke="#8950C2" stroke-width="3"/><path d="M259.916 68.014s27.45 8.142 36.859 37.639c16.577 51.876 25.061 88.833 30.668 105.312 5.704 16.772 19.794 51.242 19.746 52.412 0 1.171-1.024-1.365-1.024-1.365s-107.604 60.847-137.832 39.59c-30.229-21.258-46.172-70.94-41.979-89.905 4.193-18.966-3.754-45.343-5.265-66.406-1.561-21.891 7.508-59.823 21.94-70.94 4.046-3.217 41.929-29.399 76.887-6.337z" fill="#DAC896"/><path d="M386.583 354.161s15.212 34.275-30.033 31.301c-45.245-2.974-30.862-28.327-30.862-28.327s21.16-16.48 28.765-14.822c7.558 1.706 32.13 11.848 32.13 11.848z" fill="#B43944"/><path d="M303.796 415.934c-1.804 1.414 7.362 31.447 12.823 48.707 16.869-5.802 32.861-13.505 47.732-22.72l13.895-88.297-49.926-9.019c0-.049-21.988 69.33-24.524 71.329z" fill="#FDE0D9"/><path d="M301.553 140.319c.537 9.117-2.145 16.723-5.948 16.918-3.803.195-9.117-7.947-9.605-17.064-.243-4.096.439-7.46 1.317-10.434 1.072-3.608 4.339-5.461 6.436-5.607 3.754-.146 7.264 7.07 7.8 16.187z" fill="#FFE5DF"/><path opacity=".6" d="M330.027 336.511s-9.215 29.107-16.431 50.121l-.634 10.629s5.9 21.55 19.454-4.242c13.261-25.255 41.93-19.697 43.1-19.453l4.437-28.035-49.926-9.02z" fill="#EFC0B5"/><path d="M282.539 122.669l.195.195c.829.926 4.485 4.924 5.461 4.827 1.121-.098.438 2.145.438 2.145l-1.804 5.217-6.387-2.292 2.097-10.092z" fill="#FDE0D9"/><path d="M290.974 258.99c-14.383-5.51-18.479-55.435-18.479-55.435l-1.706 1.706-23.305 7.508-25.061-8.093-1.95.146s.439 43.442-13.798 47.391c-11.506 3.169 17.016 10.433 33.885 13.31.683 1.17 1.609 1.804 2.779 1.755.195 0 .39 0 .585-.048 1.317-.098 3.072-.293 5.12-.586.097 0 .244 0 .341.049.195 0 .39 0 .585.049.585 0 1.121-.146 1.609-.439 16.626-2.779 50.803-2.974 39.395-7.313z" fill="#FFE5DF"/><path opacity=".6" d="M291.217 261.818c.585-.146 1.024-.342 1.365-.488-.926-.439-1.999-.829-3.169-1.219a19.39 19.39 0 001.804 1.707z" fill="#FDE0D9"/><path opacity=".6" d="M290.973 258.99c-14.382-5.51-18.478-55.435-18.478-55.435l-1.706 1.706-23.306 7.508-25.06-8.093-1.95.146s-.195 10.434-.439 15.066c4.047-.049 28.766 2.535 40.613 11.262 14.676 10.824 19.356 30.619 21.989 34.422 5.168-.78 12.579-4.973 8.337-6.582z" fill="#EFC0B5"/><path d="M287.804 138.807c2.146 9.02 5.071 18.235 4.047 26.426-1.414 11.506-8.093 21.501-13.408 30.277-6.338 10.434-13.407 19.112-24.719 21.794-12.969 3.072-24.963-2.34-36.371-11.116-12.823-9.849-24.573-24.329-29.205-43.832-8.679-36.81 6.533-71.963 34.08-78.447 27.547-6.534 56.898 18.039 65.576 54.898z" fill="#FFE5DF"/><path d="M242.173 192.486c3.062 2.366 10.105 4.843 13.779-4.175" stroke="#E1BCB5"/><path d="M249.993 132.253l-.941-2.481 16.156-5.265 11.082 2.371-1.106 2.64-10.106-2.182-15.085 4.917z" fill="#D6BF80"/><path opacity=".39" d="M253.529 89.077c-9.848-5.607-20.672-7.752-31.252-5.217-27.498 6.484-42.759 41.637-34.08 78.448.195.78.39 1.608.585 2.389.195-18.723 5.704-41.15 28.961-49.487 16.138-5.802 27.644-15.846 35.786-26.133z" fill="#FDE0D9"/><path d="M221.989 138.878l-15.654.284-9.137 5.465-1.703-2.169 10.042-5.992 16.727-.282-.275 2.694z" fill="#D6BF80"/><path d="M253.48 65.186s4.73 29.741-38.029 45.051c-42.759 15.309-25.597 78.204-25.597 78.204l-19.746-89.662s35.884-35.835 36.713-36.03c.829-.195 46.659 2.437 46.659 2.437z" fill="#DAC896"/><path d="M294.63 147.876l-.536-.634c3.9-3.12-1.463-15.309-1.511-15.407l.78-.341c.195.488 5.655 12.823 1.267 16.382z" fill="#E1BCB5"/><path d="M295.362 142.22c-2.097.049-4.388-3.364-4.681-3.754l.683-.439c.633.927 2.535 3.364 3.949 3.364l.049.829z" fill="#E1BCB5"/><path d="M180.493 166.744c3.608 8.386 9.41 13.993 12.921 12.482 3.51-1.512 4.583-11.165.975-19.551-1.609-3.754-3.754-6.485-5.851-8.728-2.584-2.779-6.338-2.974-8.24-2.145-3.51 1.512-3.413 9.556.195 17.942z" fill="#FFE5DF"/><path d="M190.049 170.401c-5.509-1.219-6.143-14.675-6.192-15.26l.829-.049c0 .146.634 13.408 5.558 14.48l-.195.829z" fill="#E1BCB5"/><path d="M65.918 317.35s.585 29.79 12.871 37.834c12.287 8.045 30.862-16.918 30.862-16.918l14.822-40.613-44.855 19.015-13.7.682z" fill="#B43944"/><path d="M360.743 279.711c-2.535-6.533-3.803-29.595-41.442-24.524-37.64 5.071-16.48 1.268-38.517 2.535-6.924.39-13.067 1.073-18.235 1.755-12.871 1.756-25.987.683-38.371-3.266l-19.161-6.095s-46.951-18.185-67.672-9.312c-20.722 8.874-33.008 46.952-45.246 58.361-12.286 11.408-26.23 18.185-26.23 18.185s24.524-2.096 32.569 7.167c8.044 9.313 19.014 35.104 19.014 35.104l18.186 2.975 16.675 99.071c26.718 10.336 55.727 15.992 86.102 15.992 28.815 0 56.459-5.12 82.056-14.481 4.924-30.033 14.285-88.003 13.993-92.977-.439-6.777 46.512-9.751 46.512-9.751h7.606c-2.535-10.58-5.509-20.623-9.312-29.204-7.752-17.747-16.674-46.806-18.527-51.535z" fill="#DB525F"/><path d="M102.387 303.455s-15.7 45.44-14.432 65.089c1.268 19.648 3.17 46.318 20.283 45.684 17.113-.634 22.135 2.73 54.508-109.554 13.213-45.879 20.38-77.717 21.989-91.271 2.292-19.697-4.973-8.581-4.973-8.581s0-7.069-2.34-2.827c-5.51 10.141-16.675 37.883-18.869 42.222-4.436 8.873-31.398 59.335-31.398 59.335l-8.24.244-16.528-.341z" fill="#FFE5DF"/><path d="M106.287 388.436l-.634.049c-1.316-13.213 6.485-48.951 6.534-49.341l.634.146c-.098.39-7.85 36.079-6.534 49.146z" fill="#E1BCB5"/><path d="M110 351.5c1.2-8.8-9.833-18-15.5-21.5 0-3.667 3.5-11.2 3.5-12 0-.8.167-1.333 2-1.5l14.5 12-4.5 23z" fill="#F8D4CC"/><path d="M77.326 313.693l-3.754-.633c-4.583 2.779-7.654 4.29-7.654 4.29s8.97-.78 17.844.683c8.922 1.219 18.479 4.242 22.379 11.311 1.219 2.194 6.094 9.069 6.192 10.141.585 5.656 7.46-19.161 7.46-19.161l9.068-19.99-38.127 2.926-13.408 10.433z" fill="#DB525F"/><path d="M325.249 314.815s17.357 23.256 3.803 96.439l-3.803-96.439z" fill="#B43944"/><path d="M213.914 156.863c1.468-.347 2.211-2.518 1.66-4.851-.551-2.332-2.187-3.941-3.655-3.595-1.467.347-2.211 2.519-1.66 4.851.551 2.332 2.188 3.942 3.655 3.595zM259.303 148.568c1.468-.346 2.211-2.518 1.66-4.85-.551-2.333-2.188-3.942-3.655-3.596-1.468.347-2.211 2.519-1.66 4.851.551 2.332 2.188 3.942 3.655 3.595z" fill="#282827"/><path d="M231.102 168.257l7.028 2.388 7.111-3.901" fill="#E7C0BA"/><path opacity=".15" d="M203.262 177.324c-.536-4.973-7.216 2.292-7.216 2.292s5.656-8.093 3.413-11.555c-2.291-3.462-8.824 3.657-8.824 3.657s6.923-7.899 4.29-10.385c-1.414-1.317-3.218-.488-4.681.585.293-2.146.244-4.145-.39-5.705-2.389-5.655-10.726 14.968-10.726 14.968l3.169 1.463 2.828 1.121c-.877 2.926-1.609 5.558-1.853 6.387-.536 2.146 11.409 11.507 11.409 11.507s4.681-2.731 5.607-2.926c.975-.146 3.559-6.435 2.974-11.409z" fill="#EDAA9D"/><path d="M214.037 210.527l-3.949 2.291c-1.073.634-2.438.244-3.072-.828l-32.081-55.533c-.634-1.073-.244-2.438.829-3.072l3.949-2.291c1.073-.634 2.438-.244 3.072.829l32.081 55.532c.585 1.073.244 2.438-.829 3.072z" fill="#1B1B1B"/><path d="M178.787 172.059s-10.141 21.16-2.974 37.688c5.022 11.604 14.236.243 19.21-7.509 2.242-3.461 2.632-7.849 1.072-11.701l-3.071-7.46c-2.438-5.948-7.85-10.19-14.237-11.018z" fill="#FFE5DF"/><path d="M201.507 179.128c-.536-4.68-6.923 2.145-6.923 2.145s5.46-7.654 3.266-10.921c-2.194-3.266-8.483 3.462-8.483 3.462s6.679-7.509 4.095-9.849c-1.316-1.219-4.621 1.61-5.986 2.634.292-1.999 1.745-5.998 1.111-7.412-2.292-5.363-10.288 14.188-10.288 14.188l3.023 1.414 2.682 1.073c-.829 2.779-1.56 5.265-1.755 6.045-.488 1.999 10.97 10.873 10.97 10.873s.536 10.433 1.365 10.092c1.462-.634 7.459-19.063 6.923-23.744z" fill="#FFE5DF"/><defs><linearGradient id="paint0_linear" x1="103.776" y1="0" x2="585.387" y2="60.376" gradientUnits="userSpaceOnUse"><stop stop-color="#9156CD"/><stop offset="1" stop-color="#C296F0"/></linearGradient></defs></svg>