<svg width="20" height="20" fill="none" xmlns="http://www.w3.org/2000/svg"><path d="M10 19.308a9.375 9.375 0 100-18.75 9.375 9.375 0 000 18.75z" fill="#EC407A"/><path d="M10 0C4.486 0 0 4.486 0 10s4.486 10 10 10 10-4.486 10-10S15.514 0 10 0zm8.746 10.075a13.902 13.902 0 00-6.357-.197 35.133 35.133 0 00-.915-2.084 18.864 18.864 0 005.119-3.528A8.7 8.7 0 0118.75 10c0 .025-.004.049-.004.075zM15.71 3.384a17.588 17.588 0 01-4.778 3.299A35.129 35.129 0 007.67 1.575 8.7 8.7 0 0110 1.25c2.181 0 4.175.808 5.709 2.134zM6.434 2.018a33.85 33.85 0 013.331 5.136 17.6 17.6 0 01-8.329 1.053 8.776 8.776 0 014.998-6.19zM1.25 10c0-.188.016-.371.029-.555.74.088 1.48.145 2.217.145 2.353 0 4.664-.46 6.83-1.304.3.625.583 1.259.844 1.902a14.01 14.01 0 00-7.652 5.668A8.708 8.708 0 011.25 10zm3.181 6.744a12.757 12.757 0 017.189-5.394 33.802 33.802 0 011.69 6.745 8.709 8.709 0 01-8.879-1.351zm10.052.756a35.11 35.11 0 00-1.636-6.44 12.665 12.665 0 015.79.272 8.756 8.756 0 01-4.155 6.168z" fill="#C2185B"/></svg>