<svg width="37" height="38" fill="none" xmlns="http://www.w3.org/2000/svg"><g clip-path="url(#clip0)" fill="#fff"><path d="M24.066 20.719a78.317 78.317 0 014.038 14.528 18.731 18.731 0 003.477-2.812 19.038 19.038 0 005.164-10.27 22.396 22.396 0 00-8.781-1.787c-1.328 0-2.63.118-3.898.34zM31.597 5.581l-.016-.016C28.087 1.976 23.441 0 18.5 0a18.1 18.1 0 00-5.61.886 77.209 77.209 0 017.559 11.8A42.776 42.776 0 0031.597 5.58zM33.05 7.263a44.615 44.615 0 01-11.6 7.417c.624 1.29 1.213 2.6 1.769 3.93a24.695 24.695 0 014.745-.458c3.114 0 6.142.575 9.016 1.707.013-.285.02-.571.02-.859 0-4.311-1.39-8.403-3.95-11.737zM7.113 33.977A18.054 18.054 0 0018.5 38c2.657 0 5.228-.572 7.58-1.658a76.238 76.238 0 00-4.177-15.131c-6.547 1.835-11.941 6.567-14.79 12.767z"/><path d="M18.15 20.187a24.667 24.667 0 012.907-1.052 76.04 76.04 0 00-1.652-3.616A43.72 43.72 0 013.753 18.39c-1.254 0-2.5-.053-3.737-.157-.01.255-.016.51-.016.767 0 5.076 1.924 9.847 5.419 13.435l.003.004a25.816 25.816 0 014.715-6.704 25.105 25.105 0 018.013-5.548zM18.391 13.518a75.809 75.809 0 00-7.659-11.772 18.515 18.515 0 00-5.314 3.819 19.041 19.041 0 00-5.191 10.45c1.163.098 2.339.148 3.526.148 5.138 0 10.069-.934 14.638-2.645z"/></g><defs><clipPath id="clip0"><path fill="#fff" d="M0 0h37v38H0z"/></clipPath></defs></svg>