<svg width="36" height="36" fill="none" xmlns="http://www.w3.org/2000/svg"><g clip-path="url(#clip0)" fill="#DB525F"><path d="M33.767 15.616h-7.993l.549-.548c.87-.871.87-2.288 0-3.16L15.068.655A2.219 2.219 0 0013.488 0c-.596 0-1.157.232-1.579.654l-3.39 3.39a.703.703 0 00.995.995l3.39-3.39a.822.822 0 01.585-.243c.22 0 .428.086.584.243l11.255 11.254a.828.828 0 010 1.17L14.073 25.328a.822.822 0 01-.584.242.822.822 0 01-.585-.242L1.649 14.073a.828.828 0 010-1.17l3.39-3.39a.703.703 0 00-.995-.994l-3.39 3.39c-.87.87-.87 2.288 0 3.159L11.91 26.322c.422.422.983.654 1.58.654a2.22 2.22 0 001.579-.654l.549-.549v7.994A2.236 2.236 0 0017.85 36h15.917A2.236 2.236 0 0036 33.767V17.85a2.236 2.236 0 00-2.233-2.234zm.827 18.15a.828.828 0 01-.827.828H17.85a.828.828 0 01-.827-.828v-9.399l7.345-7.344h9.399c.456 0 .827.37.827.827v15.916z"/><path d="M25.808 23.207a2.604 2.604 0 00-2.601 2.601c0 1.434 1.166 2.601 2.6 2.601 1.435 0 2.602-1.167 2.602-2.6 0-1.435-1.167-2.602-2.601-2.602zm0 3.796a1.196 1.196 0 01-1.195-1.195 1.196 1.196 0 012.39 0c0 .659-.537 1.195-1.195 1.195zM8.12 16.088c.666 0 1.332-.254 1.84-.76a2.604 2.604 0 000-3.679 2.604 2.604 0 00-3.679 0 2.604 2.604 0 000 3.678c.507.507 1.173.76 1.84.76zm-.845-3.445a1.19 1.19 0 01.845-.349 1.196 1.196 0 01.845 2.039 1.196 1.196 0 01-1.69 0 1.196 1.196 0 010-1.69zM15.327 9.96a2.604 2.604 0 000-3.679 2.604 2.604 0 00-3.678 0 2.584 2.584 0 00-.762 1.84c0 .694.27 1.347.762 1.839.507.507 1.173.76 1.839.76.666 0 1.332-.253 1.839-.76zm-3.034-1.84a1.191 1.191 0 011.195-1.194 1.196 1.196 0 01.845 2.039 1.196 1.196 0 01-2.04-.844zM11.649 20.695a2.583 2.583 0 001.839.762c.694 0 1.348-.27 1.839-.762a2.584 2.584 0 00.762-1.84c0-.694-.271-1.347-.762-1.838a2.604 2.604 0 00-3.678 0 2.583 2.583 0 00-.762 1.839c0 .694.27 1.348.762 1.839zm.994-2.684a1.19 1.19 0 01.845-.35 1.191 1.191 0 011.194 1.195c0 .319-.124.619-.35.845-.225.225-.525.35-.844.35-.32 0-.62-.125-.845-.35a1.187 1.187 0 01-.35-.845c0-.32.124-.62.35-.845zM20.694 15.327a2.604 2.604 0 000-3.678 2.604 2.604 0 00-3.678 0 2.604 2.604 0 000 3.678c.507.507 1.173.76 1.84.76.665 0 1.331-.253 1.838-.76zm-2.683-.994a1.196 1.196 0 01.844-2.039 1.196 1.196 0 01.845 2.039 1.196 1.196 0 01-1.69 0zM6.778 7.482a.708.708 0 00.497-.206.709.709 0 00.206-.497.707.707 0 00-.703-.703.705.705 0 00-.703.703c0 .185.075.366.206.497.131.13.312.206.497.206z"/></g><defs><clipPath id="clip0"><path fill="#fff" d="M0 0h36v36H0z"/></clipPath></defs></svg>