<svg width="24" height="24" fill="none" xmlns="http://www.w3.org/2000/svg"><g clip-path="url(#clip0)"><path d="M20.944 6.797l-1.276 12.82H4.332L3.303 7.046 12 11.914l8.944-5.117z" fill="#F2F2F2"/><path d="M20.511 4.382l-8.51 7.995-8.512-7.995H20.51z" fill="#F2F2F2"/><path d="M4.332 8.074v11.544h-1.39A.943.943 0 012 18.675V6.374l1.523.041.81 1.659z" fill="#F14336"/><path d="M22 6.374v12.301c0 .52-.422.943-.944.943h-1.389V8.074l.77-1.817L22 6.374z" fill="#D32E2A"/><path d="M22 5.325v1.049l-2.332 1.7L12 13.662 4.332 8.075 2 6.374V5.325c0-.52.422-.943.943-.943h.546L12 10.586l8.511-6.204h.546c.52 0 .943.422.943.943z" fill="#F14336"/><path d="M4.332 8.074L2 7.712V6.374l2.332 1.7z" fill="#D32E2A"/></g><defs><clipPath id="clip0"><path fill="#fff" transform="translate(2 2)" d="M0 0h20v20H0z"/></clipPath></defs></svg>