<svg width="48" height="48" fill="none" xmlns="http://www.w3.org/2000/svg"><path d="M24 17.752c-3.44 0-6.248 2.807-6.248 6.248 0 3.44 2.807 6.248 6.248 6.248 3.44 0 6.248-2.807 6.248-6.248 0-3.44-2.807-6.248-6.248-6.248zM42.74 24c0-2.587.024-5.152-.121-7.734-.146-3-.83-5.663-3.024-7.857-2.198-2.198-4.856-2.878-7.856-3.023-2.588-.145-5.152-.122-7.734-.122-2.588 0-5.152-.023-7.735.122-3 .145-5.662.83-7.856 3.023-2.198 2.199-2.878 4.857-3.023 7.857-.146 2.587-.122 5.151-.122 7.734s-.024 5.151.122 7.734c.145 3 .83 5.663 3.023 7.857 2.199 2.198 4.856 2.878 7.856 3.023 2.588.145 5.152.122 7.735.122 2.587 0 5.151.023 7.734-.122 3-.145 5.662-.83 7.856-3.023 2.199-2.199 2.878-4.857 3.024-7.857.15-2.583.122-5.147.122-7.734zM24 33.614A9.6 9.6 0 0114.386 24 9.6 9.6 0 0124 14.386 9.6 9.6 0 0133.614 24 9.6 9.6 0 0124 33.614zm10.008-17.376a2.243 2.243 0 01-2.246-2.246 2.243 2.243 0 012.246-2.245 2.243 2.243 0 012.075 3.105 2.242 2.242 0 01-2.075 1.386z" fill="#fff"/></svg>