<svg width="38" height="38" viewBox="0 0 38 38" fill="none" xmlns="http://www.w3.org/2000/svg">
<path d="M19 12.7515C15.5594 12.7515 12.7515 15.5593 12.7515 19C12.7515 22.4406 15.5594 25.2484 19 25.2484C22.4406 25.2484 25.2484 22.4406 25.2484 19C25.2484 15.5593 22.4406 12.7515 19 12.7515ZM37.7406 19C37.7406 16.4125 37.764 13.8484 37.6187 11.2656C37.4734 8.26559 36.789 5.60309 34.5953 3.40934C32.3969 1.2109 29.739 0.531216 26.739 0.385903C24.1515 0.240591 21.5875 0.264029 19.0047 0.264029C16.4172 0.264029 13.8531 0.240591 11.2703 0.385903C8.27029 0.531216 5.60779 1.21559 3.41404 3.40934C1.2156 5.60778 0.535916 8.26559 0.390603 11.2656C0.245291 13.8531 0.268728 16.4172 0.268728 19C0.268728 21.5828 0.245291 24.1515 0.390603 26.7343C0.535916 29.7343 1.22029 32.3968 3.41404 34.5906C5.61248 36.789 8.27029 37.4687 11.2703 37.614C13.8578 37.7593 16.4219 37.7359 19.0047 37.7359C21.5922 37.7359 24.1562 37.7593 26.739 37.614C29.739 37.4687 32.4015 36.7843 34.5953 34.5906C36.7937 32.3922 37.4734 29.7343 37.6187 26.7343C37.7687 24.1515 37.7406 21.5875 37.7406 19ZM19 28.614C13.6797 28.614 9.38591 24.3203 9.38591 19C9.38591 13.6797 13.6797 9.3859 19 9.3859C24.3203 9.3859 28.614 13.6797 28.614 19C28.614 24.3203 24.3203 28.614 19 28.614ZM29.0078 11.2375C27.7656 11.2375 26.7625 10.2343 26.7625 8.99215C26.7625 7.74997 27.7656 6.74684 29.0078 6.74684C30.25 6.74684 31.2531 7.74997 31.2531 8.99215C31.2535 9.28712 31.1956 9.57925 31.0829 9.85184C30.9702 10.1244 30.8049 10.3721 30.5963 10.5807C30.3877 10.7892 30.1401 10.9546 29.8675 11.0673C29.5949 11.18 29.3028 11.2378 29.0078 11.2375Z" fill="white"/>
</svg>
