<svg width="1440" height="185" viewBox="0 0 1440 185" fill="none" xmlns="http://www.w3.org/2000/svg">
<path d="M1440 92.4999L1437.71 93.4149L1435.41 94.3298L1433.12 95.2445L1430.83 96.1589L1428.54 97.073L1426.24 97.9866L1423.95 98.8997L1421.66 99.8121L1419.36 100.724L1417.07 101.635L1414.78 102.545L1412.48 103.454L1410.19 104.361L1407.9 105.268L1405.61 106.173L1403.31 107.078L1401.02 107.98L1398.73 108.881L1396.43 109.781L1394.14 110.678L1391.85 111.574L1389.55 112.468L1387.26 113.36L1384.97 114.25L1382.68 115.137L1380.38 116.023L1378.09 116.906L1375.8 117.786L1373.5 118.665L1371.21 119.54L1368.92 120.413L1366.62 121.283L1364.33 122.15L1362.04 123.014L1359.75 123.875L1357.45 124.733L1355.16 125.588L1352.87 126.439L1350.57 127.287L1348.28 128.132L1345.99 128.973L1343.69 129.81L1341.4 130.644L1339.11 131.473L1336.82 132.299L1334.52 133.121L1332.23 133.939L1329.94 134.753L1327.64 135.562L1325.35 136.367L1323.06 137.168L1320.76 137.964L1318.47 138.756L1316.18 139.543L1313.89 140.326L1311.59 141.104L1309.3 141.876L1307.01 142.644L1304.71 143.407L1302.42 144.165L1300.13 144.917L1297.83 145.665L1295.54 146.407L1293.25 147.143L1290.96 147.875L1288.66 148.6L1286.37 149.32L1284.08 150.035L1281.78 150.743L1279.49 151.446L1277.2 152.143L1274.9 152.834L1272.61 153.519L1270.32 154.197L1268.03 154.87L1265.73 155.536L1263.44 156.196L1261.15 156.85L1258.85 157.497L1256.56 158.138L1254.27 158.772L1251.97 159.4L1249.68 160.021L1247.39 160.635L1245.1 161.242L1242.8 161.843L1240.51 162.436L1238.22 163.023L1235.92 163.602L1233.63 164.174L1231.34 164.74L1229.04 165.298L1226.75 165.848L1224.46 166.392L1222.17 166.928L1219.87 167.456L1217.58 167.977L1215.29 168.491L1212.99 168.996L1210.7 169.495L1208.41 169.985L1206.11 170.468L1203.82 170.943L1201.53 171.41L1199.24 171.869L1196.94 172.321L1194.65 172.764L1192.36 173.199L1190.06 173.626L1187.77 174.045L1185.48 174.456L1183.18 174.859L1180.89 175.254L1178.6 175.64L1176.31 176.018L1174.01 176.388L1171.72 176.749L1169.43 177.101L1167.13 177.446L1164.84 177.782L1162.55 178.109L1160.25 178.428L1157.96 178.738L1155.67 179.039L1153.38 179.332L1151.08 179.616L1148.79 179.892L1146.5 180.158L1144.2 180.416L1141.91 180.666L1139.62 180.906L1137.32 181.137L1135.03 181.36L1132.74 181.574L1130.45 181.779L1128.15 181.975L1125.86 182.162L1123.57 182.34L1121.27 182.509L1118.98 182.669L1116.69 182.82L1114.39 182.962L1112.1 183.095L1109.81 183.218L1107.52 183.333L1105.22 183.439L1102.93 183.536L1100.64 183.623L1098.34 183.702L1096.05 183.771L1093.76 183.831L1091.46 183.882L1089.17 183.924L1086.88 183.957L1084.59 183.98L1082.29 183.995L1080 184L1077.71 183.996L1075.41 183.983L1073.12 183.961L1070.83 183.93L1068.54 183.889L1066.24 183.84L1063.95 183.781L1061.66 183.713L1059.36 183.636L1057.07 183.55L1054.78 183.455L1052.48 183.351L1050.19 183.237L1047.9 183.115L1045.61 182.983L1043.31 182.843L1041.02 182.693L1038.73 182.535L1036.43 182.367L1034.14 182.191L1031.85 182.005L1029.55 181.811L1027.26 181.607L1024.97 181.395L1022.68 181.174L1020.38 180.943L1018.09 180.704L1015.8 180.457L1013.5 180.2L1011.21 179.935L1008.92 179.661L1006.62 179.378L1004.33 179.086L1002.04 178.786L999.745 178.478L997.452 178.16L995.159 177.834L992.866 177.5L990.573 177.157L988.28 176.805L985.987 176.446L983.694 176.077L981.401 175.701L979.108 175.316L976.815 174.923L974.522 174.521L972.229 174.111L969.936 173.694L967.643 173.268L965.35 172.834L963.057 172.392L960.764 171.942L958.471 171.484L956.178 171.018L953.885 170.544L951.592 170.063L949.299 169.573L947.006 169.076L944.713 168.572L942.42 168.059L940.127 167.54L937.834 167.012L935.541 166.477L933.248 165.935L930.955 165.386L928.662 164.829L926.369 164.265L924.076 163.694L921.783 163.115L919.49 162.53L917.197 161.938L914.904 161.338L912.612 160.732L910.318 160.119L908.026 159.499L905.732 158.873L903.44 158.24L901.147 157.6L898.854 156.954L896.561 156.301L894.268 155.642L891.975 154.976L889.682 154.305L887.389 153.627L885.096 152.943L882.803 152.253L880.51 151.557L878.217 150.855L875.924 150.148L873.631 149.434L871.338 148.715L869.045 147.99L866.752 147.26L864.459 146.524L862.166 145.783L859.873 145.037L857.58 144.285L855.287 143.528L852.994 142.766L850.701 141.999L848.408 141.227L846.115 140.45L843.822 139.668L841.529 138.882L839.236 138.091L836.943 137.295L834.65 136.495L832.357 135.691L830.064 134.882L827.771 134.069L825.478 133.252L823.185 132.43L820.892 131.605L818.599 130.776L816.306 129.943L814.013 129.106L811.72 128.266L809.427 127.422L807.134 126.574L804.841 125.724L802.548 124.869L800.255 124.012L797.962 123.151L795.669 122.288L793.376 121.421L791.083 120.552L788.79 119.679L786.497 118.804L784.204 117.926L781.911 117.046L779.618 116.164L777.325 115.279L775.032 114.391L772.739 113.502L770.446 112.61L768.153 111.716L765.86 110.821L763.567 109.924L761.274 109.024L758.981 108.124L756.688 107.221L754.395 106.318L752.102 105.412L749.809 104.506L747.516 103.598L745.223 102.689L742.93 101.78L740.637 100.869L738.344 99.9573L736.051 99.045L733.758 98.1321L731.465 97.2185L729.172 96.3045L726.879 95.3901L724.586 94.4755L722.293 93.5606L720 92.6456L717.707 91.7306L715.414 90.8157L713.121 89.901L710.828 88.9865L708.535 88.0723L706.242 87.1586L703.949 86.2455L701.656 85.333L699.363 84.4211L697.07 83.5101L694.777 82.6L692.484 81.6909L690.191 80.7829L687.898 79.876L685.605 78.9704L683.312 78.0661L681.019 77.1633L678.726 76.2621L676.433 75.3624L674.14 74.4645L671.847 73.5683L669.554 72.6741L667.261 71.7818L664.968 70.8916L662.675 70.0036L660.382 69.1178L658.089 68.2344L655.796 67.3534L653.503 66.4749L651.21 65.599L648.917 64.7258L646.624 63.8554L644.331 62.9878L642.038 62.1232L639.745 61.2616L637.452 60.4032L635.159 59.5479L632.866 58.696L630.573 57.8474L628.28 57.0023L625.987 56.1608L623.694 55.3229L621.401 54.4887L619.108 53.6583L616.815 52.8317L614.522 52.0092L612.229 51.1907L609.936 50.3763L607.643 49.5662L605.35 48.7603L603.057 47.9588L600.764 47.1618L598.471 46.3693L596.178 45.5814L593.885 44.7982L591.592 44.0198L589.299 43.2462L587.006 42.4776L584.713 41.7139L582.42 40.9554L580.127 40.2019L577.834 39.4538L575.541 38.7109L573.248 37.9734L570.955 37.2413L568.662 36.5148L566.369 35.7939L564.076 35.0786L561.783 34.3691L559.49 33.6654L557.198 32.9676L554.904 32.2757L552.612 31.5899L550.318 30.9101L548.026 30.2365L545.733 29.5692L543.44 28.9081L541.147 28.2534L538.854 27.6051L536.561 26.9633L534.268 26.3281L531.975 25.6994L529.682 25.0775L527.389 24.4623L525.096 23.8539L522.803 23.2523L520.51 22.6577L518.217 22.0701L515.924 21.4895L513.631 20.916L511.338 20.3497L509.045 19.7906L506.752 19.2388L504.459 18.6942L502.166 18.1571L499.873 17.6274L497.58 17.1052L495.287 16.5905L492.994 16.0834L490.701 15.584L488.408 15.0923L486.115 14.6082L483.822 14.132L481.529 13.6636L479.236 13.2031L476.943 12.7506L474.65 12.306L472.357 11.8694L470.064 11.4409L467.771 11.0205L465.478 10.6082L463.185 10.2042L460.892 9.80832L458.599 9.42075L456.306 9.04149L454.013 8.67057L451.72 8.30803L449.427 7.95392L447.134 7.60826L444.841 7.27109L442.548 6.94244L440.255 6.62234L437.962 6.31084L435.669 6.00795L433.376 5.71372L431.083 5.42816L428.79 5.1513L426.497 4.88319L424.204 4.62383L421.911 4.37326L419.618 4.13151L417.325 3.89859L415.032 3.67453L412.739 3.45936L410.446 3.25308L408.153 3.05574L405.86 2.86733L403.567 2.68789L401.274 2.51743L398.981 2.35597L396.688 2.20353L394.395 2.06011L392.102 1.92574L389.809 1.80042L387.516 1.68418L385.223 1.57701L382.93 1.47894L380.637 1.38997L378.344 1.31011L376.051 1.23937L373.758 1.17776L371.465 1.12528L369.172 1.08193L366.879 1.04773L364.586 1.02267L362.293 1.00676L360 1L357.707 1.00239L355.414 1.01393L353.121 1.03462L350.828 1.06445L348.535 1.10343L346.242 1.15154L343.949 1.20879L341.656 1.27517L339.363 1.35068L337.07 1.4353L334.777 1.52902L332.484 1.63184L330.191 1.74375L327.898 1.86473L325.605 1.99478L323.312 2.13388L321.019 2.28201L318.726 2.43917L316.433 2.60533L314.14 2.78048L311.847 2.9646L309.554 3.15768L307.261 3.35969L304.968 3.57061L302.675 3.79043L300.382 4.01912L298.089 4.25665L295.796 4.50301L293.503 4.75817L291.21 5.02211L288.917 5.29479L286.624 5.57619L284.331 5.86629L282.038 6.16504L279.745 6.47244L277.452 6.78843L275.159 7.11299L272.866 7.4461L270.573 7.78771L268.28 8.13779L265.987 8.4963L263.694 8.86322L261.401 9.2385L259.108 9.6221L256.815 10.014L254.522 10.4141L252.229 10.8225L249.936 11.239L247.643 11.6637L245.35 12.0964L243.057 12.5372L240.764 12.9859L238.471 13.4426L236.178 13.9073L233.885 14.3797L231.592 14.86L229.299 15.3481L227.006 15.8439L224.713 16.3473L222.42 16.8583L220.127 17.377L217.834 17.9031L215.542 18.4367L213.248 18.9777L210.955 19.526L208.662 20.0817L206.37 20.6446L204.077 21.2146L201.783 21.7918L199.49 22.3761L197.198 22.9674L194.905 23.5656L192.612 24.1707L190.318 24.7827L188.026 25.4014L185.733 26.0269L183.44 26.659L181.146 27.2976L178.854 27.9428L176.561 28.5945L174.268 29.2525L171.975 29.9169L169.682 30.5875L167.389 31.2643L165.096 31.9473L162.803 32.6363L160.51 33.3313L158.217 34.0322L155.924 34.7389L153.631 35.4514L151.338 36.1696L149.045 36.8935L146.752 37.6229L144.459 38.3578L142.166 39.0981L139.873 39.8438L137.58 40.5947L135.287 41.3508L132.994 42.1121L130.701 42.8783L128.408 43.6496L126.115 44.4257L123.822 45.2066L121.529 45.9923L119.236 46.7826L116.943 47.5775L114.65 48.3768L112.357 49.1806L110.064 49.9887L107.771 50.8011L105.478 51.6176L103.185 52.4382L100.892 53.2629L98.5988 54.0914L96.3058 54.9238L94.0128 55.76L91.7198 56.5998L89.4268 57.4432L87.1338 58.2901L84.8408 59.1405L82.5479 59.9941L80.2549 60.8511L77.9618 61.7112L75.6688 62.5743L73.3759 63.4405L71.0829 64.3096L68.7899 65.1814L66.4968 66.0561L64.2039 66.9333L61.9109 67.8131L59.6179 68.6954L57.325 69.5801L55.0319 70.4671L52.7389 71.3562L50.4459 72.2475L48.153 73.1408L45.8599 74.0361L43.5669 74.9332L41.2739 75.832L38.981 76.7325L36.688 77.6346L34.3949 78.5382L32.1019 79.4431L29.809 80.3494L27.516 81.2569L25.223 82.1655L22.9299 83.0752L20.637 83.9858L18.344 84.8972L16.051 85.8094L13.7581 86.7223L11.465 87.6357L9.172 88.5497L6.87903 89.464L4.58606 90.3786L2.29309 91.2935L0 92.2084" stroke="#562885"/>
</svg>
