<svg width="42" height="43" fill="none" xmlns="http://www.w3.org/2000/svg"><g clip-path="url(#clip0)" fill="#fff"><path d="M9.794 13.494H1.887c-.68 0-1.23.564-1.23 1.26V41.74c0 .695.55 1.26 1.23 1.26h7.907c.68 0 1.23-.565 1.23-1.26V14.753c0-.695-.55-1.26-1.23-1.26zM5.84 0C2.983 0 .657 2.381.657 5.307c0 2.927 2.326 5.308 5.185 5.308 2.858 0 5.184-2.38 5.184-5.308C11.025 2.381 8.699 0 5.84 0zM29.565 13.315c-1.87 0-3.714.462-5.365 1.325a1.243 1.243 0 00-1.225-1.147h-7.909c-.679 0-1.23.564-1.23 1.26V41.74c0 .696.551 1.26 1.23 1.26h7.909c.68 0 1.23-.564 1.23-1.26V26.897c0-1.91 1.517-3.462 3.383-3.462 1.864 0 3.381 1.553 3.381 3.462V41.74c0 .696.552 1.26 1.23 1.26h7.909c.68 0 1.23-.564 1.23-1.26V25.37c0-6.647-5.281-12.054-11.773-12.054z"/></g><defs><clipPath id="clip0"><path fill="#fff" d="M0 0h42v43H0z"/></clipPath></defs></svg>