<svg width="536" height="535" fill="none" xmlns="http://www.w3.org/2000/svg"><path d="M268.035 534.722c147.638 0 267.322-119.684 267.322-267.323C535.357 119.761 415.673.077 268.035.077S.712 119.761.712 267.4c0 147.639 119.685 267.323 267.323 267.323z" fill="url(#paint0_linear)"/><mask id="a" maskUnits="userSpaceOnUse" x="0" y="0" width="536" height="535"><path d="M268.035 534.722c147.638 0 267.322-119.684 267.322-267.323C535.357 119.761 415.673.077 268.035.077S.712 119.761.712 267.4c0 147.639 119.685 267.323 267.323 267.323z" fill="#FF962E"/></mask><g mask="url(#a)" stroke="#8950C2" stroke-width="3"><path d="M78.974 244.984c17.297 73.331 71.317 241.108 149.015 325.572m18.318 29.619C151.941 525.711-16.525 350.962 64.541 247.681 145.608 144.4 219.496 439.643 246.307 600.175zM63.19 324.276c11.572 2.929 36.982 12.498 46.035 27.34M114.752 253.455c-7.411 9.449-19.669 38.017-9.403 76.692M75.178 388.342c15.379 4.332 50.24 18.233 66.661 39.184M174.151 367.999c-6.161 21.62-17.501 71.54-13.58 98.259M128.866 472.962c9.774.773 33.965 8.274 52.535 32.093M203.831 492.81c-1.574 13.016-2.794 42.256 4.922 55.096"/></g><path d="M404.148 72.518c-19.316 38.881-57.107 133.154-53.738 199.199m-2.778 19.875c-14.439-67.745-24.829-207.227 49.124-223.19 73.953-15.962-1.935 142.142-49.124 223.19zM367.969 101.868c4.054 5.558 11.799 19.151 10.351 29.064M416.895 89.44c-6.764 1.463-22.712 9.62-32.393 30.546M349.708 134.687c5.225 7.58 15.567 26.573 15.138 41.906M401.08 162.09c-10.688 7.319-34.087 25.28-42.181 38.571M342.373 191.966c4.049 3.94 12.016 16.168 11.484 33.563M368.309 228.354c-5.488 5.192-16.789 17.708-18.093 26.241M494.194 283.1c-25.325 18.855-80.864 67.551-100.42 111.49m-8.344 11.974c12.937-48.685 52.113-142.558 105.325-128.566 53.213 13.992-48.044 91.541-105.325 128.566zM461.071 290.224c.8 4.938 1.348 16.303-2.854 22.255M496.89 298.27c-4.867-1.278-17.894-1.238-31.061 9.146M438.426 305.496c.893 6.635 1.348 22.357-3.978 32.159M462.72 340.176c-9.341 1.229-30.427 5.174-40.051 11.128M414.814 340.226c1.33 3.888 2.47 14.44-3.6 25.546M419.655 372.361c-5.267 1.56-16.716 5.957-20.371 11.061" stroke="#A770E0" stroke-width="3"/><path d="M115.789 99.398c31.944 29.401 100.95 103.924 121.424 166.806m9.702 17.567c-10.744-68.429-50.924-202.4-125.695-190.86-74.771 11.542 52.642 132.049 125.695 190.86zM160.072 113.868c-1.798 6.64-4.17 22.105.727 30.844M109.937 119.761c6.839-1.054 24.65.86 41.175 16.94M188.862 137.986c-2.169 8.948-5.034 30.383.85 44.549M150.688 181.948c12.599 3.013 40.874 11.418 53.186 20.935M216.197 188.853c-2.373 5.128-5.439 19.396 1.278 35.451M204.99 232.111c6.981 2.885 22.012 10.532 26.281 18.034" stroke="#8950C2" stroke-width="3"/><path d="M320.659 81.55s27.758 15.924 30.43 50.443c4.69 60.75 4.417 103.123 6.326 122.537 1.909 19.741 8.344 60.859 8.016 62.113-.327 1.254-.763-1.745-.763-1.745s-132.789 38.501-160.219 7.58c-27.43-30.92-32.011-89.107-22.577-108.685 9.434-19.577 7.58-50.334 11.343-73.674 3.926-24.213 23.558-63.15 42.1-71.603 5.18-2.236 53.17-21.05 85.344 13.034z" fill="#DAC896"/><path d="M368.267 393.644s11.67 38.064 34.738 19.687c23.013-18.378 14.288-30.43 14.288-30.43l-.927-12.815-19.305-3.709-11.125 8.18s-11.888 5.181-12.434 9.489c-.545 4.199-5.235 9.598-5.235 9.598z" fill="#B33646"/><path d="M347.326 170.985c-1.799 10.088-6.653 17.668-10.852 16.905-4.199-.764-7.853-10.961-6.107-21.05.818-4.526 2.399-8.016 4.089-11.016 2.073-3.653 6.108-4.853 8.453-4.471 4.254.763 6.217 9.543 4.417 19.632z" fill="#FFE5DF"/><path d="M331.184 146.826s.055.109.164.273c.654 1.254 3.599 6.489 4.69 6.653 1.254.164-.055 2.4-.055 2.4l-3.326 5.18-6.381-4.144 4.908-10.362z" fill="#FDE5DE"/><path d="M324.968 289.758c-16.088-6.162-20.669-62.004-20.669-62.004l-1.908 1.908-26.067 8.399-27.976-9.053-2.181.164s.491 48.589-15.433 53.006c-12.87 3.545 19.032 11.67 37.901 14.888.763 1.308 1.799 2.017 3.108 1.963.218 0 .436 0 .654-.055 1.473-.109 3.436-.327 5.726-.654.11 0 .273 0 .382.054.218 0 .436 0 .655.055.654 0 1.254-.164 1.799-.491 18.596-3.108 56.769-3.326 44.009-8.18z" fill="#FFE5DF"/><path opacity=".6" d="M326.44 292.921c.654-.164 1.145-.382 1.527-.545-1.036-.491-2.236-.927-3.545-1.364a21.717 21.717 0 002.018 1.909z" fill="#FDE0D9"/><path opacity=".6" d="M325.077 289.758c-16.088-6.162-20.668-62.004-20.668-62.004l-1.909 1.908-26.067 8.398-28.03-9.052-2.181.164s-.655 11.724-.873 16.905c4.526-.055 32.611 2.781 45.863 12.543 16.414 12.106 21.649 34.246 24.594 38.5 5.726-.872 14.015-5.562 9.271-7.362z" fill="#F0CEC6"/><path d="M332.52 165.619c0 10.362.818 21.159-2.345 29.83-4.526 12.161-14.342 21.323-22.413 29.503-9.598 9.707-19.523 17.341-32.502 17.341-14.888 0-26.558-8.998-36.755-21.431C227.053 206.847 218 188.087 218 165.674 218 123.356 243.631 89 275.26 89c31.629 0 57.26 34.301 57.26 76.619z" fill="#FFE5DF"/><path d="M288.757 149.498l-.163-.818c-.164-.599.272-1.199.872-1.308l17.287-3.218c.164-.054.382 0 .546.055l10.47 3.762c.655.219.927.982.546 1.582l-.491.872c-.273.437-.818.655-1.309.491l-9.762-3.49c-.163-.054-.381-.054-.545-.054l-16.142 2.999c-.6.054-1.145-.273-1.309-.873z" fill="#D6BF80"/><path opacity=".39" d="M308.608 102.109c-9.271-8.67-20.56-13.742-32.72-13.742-31.63 0-57.26 34.301-57.26 76.673 0 .927 0 1.855.054 2.727 5.017-20.341 16.796-43.354 44.281-46.408 19.032-2.181 34.193-10.143 45.645-19.25z" fill="#FDE0D9"/><path d="M260.073 149.335l-15.706-4.145a.937.937 0 00-.545 0l-10.307 2.781c-.545.164-1.091-.109-1.254-.654l-.327-.818c-.273-.6.109-1.309.709-1.472l11.179-3a.937.937 0 01.545 0L261 146.39c.654.164.982.818.709 1.472l-.327.818c-.218.546-.764.818-1.309.655z" fill="#D6BF80"/><path d="M314.334 76.805s-2.509 33.593-53.007 39.264c-50.443 5.672-47.935 78.528-47.935 78.528l1.582-102.686s48.262-29.83 49.189-29.83c.927 0 50.171 14.724 50.171 14.724z" fill="#DAC896"/><path d="M337.892 177.419l-.382-.818c5.017-2.399 2.345-17.014 2.291-17.178l.927-.163c.054.6 2.835 15.433-2.836 18.159z" fill="#E1BCB5"/><path d="M340.128 171.421c-2.291-.491-3.927-4.799-4.145-5.235l.873-.328c.436 1.2 1.909 4.309 3.435 4.69l-.163.873z" fill="#E1BCB5"/><path d="M208.757 168.64c1.8 10.088 6.653 17.668 10.852 16.905 4.199-.764 7.853-10.961 6.108-21.05-.818-4.526-2.4-8.016-4.09-11.016-2.072-3.653-6.108-4.853-8.453-4.471-4.199.763-6.162 9.543-4.417 19.632z" fill="#FFE5DF"/><path d="M218.246 175.02c-5.672-2.727-2.945-17.56-2.836-18.214l.927.164c-.054.163-2.726 14.778 2.291 17.177l-.382.873z" fill="#E1BCB5"/><path d="M215.955 169.076l-.218-.927c1.527-.327 3-3.49 3.436-4.69l.873.327c-.11.491-1.746 4.745-4.091 5.29z" fill="#E1BCB5"/><path d="M416.856 362.069c-2.072-3.217-4.362-6.271-8.016-7.907-8.18-3.654-18.923.545-22.849 6.599-5.563 8.725-7.471 20.886-6.763 34.137.328 6.381 1.309 13.034 2.782 19.687 3.49 15.76 21.049 23.776 35.283 16.142.109-.055.272-.164.381-.218 8.726-4.636 13.634-14.234 12.543-24.104-1.582-13.252-4.526-30.648-13.361-44.336z" fill="#FFE5DF"/><path opacity=".6" d="M413.093 386.609l-5.017-23.558-17.287 1.091s-9.816 11.124-10.197 12.978c-.055.382-.437 1.255-.873 2.4-.654 4.853-.818 10.034-.491 15.433.055.545.055 1.145.109 1.745 4.527-1.691 13.797-4.69 19.305-2.454 7.417 2.945 14.451-7.635 14.451-7.635z" fill="#F0CEC6"/><path d="M401.969 338.238l4.199-.709c5.126 3.109 8.561 4.799 8.561 4.799s-10.034-.872-19.959.764c-9.979 1.363-20.668 4.744-25.031 12.651-1.363 2.454-2.072 3.545-2.181 4.69-.654 6.326-5.508-18.759-5.508-18.759l-1.254-11.016 26.176-4.09 14.997 11.67z" fill="#D84F61"/><path d="M179.691 346.364s-19.414 26.012-4.254 107.867z" fill="#B33646"/><path d="M247.694 166.458c1.686 0 3.054-2.173 3.054-4.853 0-2.681-1.368-4.854-3.054-4.854-1.687 0-3.054 2.173-3.054 4.854 0 2.68 1.367 4.853 3.054 4.853zM303.154 167.276c1.687 0 3.054-2.173 3.054-4.853 0-2.681-1.367-4.854-3.054-4.854-1.686 0-3.054 2.173-3.054 4.854 0 2.68 1.368 4.853 3.054 4.853z" fill="#282827"/><path d="M270.762 183.254l4.471 2.291 5.072-2.018" fill="#EAC7C2"/><path d="M446.631 241.605c0 2.618 2.4.818 7.962 7.417 5.508 6.544 7.199 13.851 5.726 23.34-1.472 9.489-8.071 22.086-13.96 25.576-6.98 4.145-21.65 10.361-21.65 3.436 0-3.818-2.072-10.034-3.872-13.197-2.726-4.69-4.526-10.253-5.126-15.815-1.527-15.051 10.798-25.522 10.198-27.267-2.999-8.452-11.943-44.717-3.708-47.444 5.017-1.636 12.706 41.173 14.505 44.281.164.219.109-49.461 7.526-46.353 5.835 2.509 2.454 38.882 2.399 46.026z" fill="#FDE5DE"/><path d="M454.921 249.676c-2.345 6.217-6.49 12.27-11.889 16.142-3.435 2.509-7.907 1.2-8.398-4.035-.273-3.054.764-7.581 1.854-10.035 8.78-20.013 21.541-17.123 19.36-6.053-.328 1.527-.546 3.163-.927 3.981z" fill="#FDE5DE"/><path d="M451.158 251.203c1.254-1.581 2.835-2.618 4.744-3.272 1.745-.6 3.381.709 3.981 2.509 2.4 7.362-4.744 22.358-10.961 19.85-1.854-.764-2.672-3.545-2.672-5.29.054-2.509 1.69-9.652 4.908-13.797zM420.837 264.237c4.145-5.945 12.161-15.979 19.087-18.106 2.29-.708 5.235.546 5.344 3.818.109 2.399-.818 4.581-1.963 6.707-3.654 6.981-5.344 7.199-3.927 10.907 2.782 7.308-.818 15.433-6.707 19.032-5.563 3.49-11.125 1.527-14.07-4.526-2.945-5.999-1.418-12.543 2.236-17.832z" fill="#FDE5DE"/><path d="M441.124 246.677s-13.089 3.217-22.468 20.395M440.742 266.909s2.727 14.56-9.925 20.722" stroke="#E1BCB5" stroke-miterlimit="10"/><path d="M172.056 419.002s-64.622 5.29-63.368-21.541c.11-2.563 3.327-4.798 3.763-6.598 4.417-17.014 19.578-2.018 19.578-2.018l48.098 19.141-1.2 8.998-6.871 2.018z" fill="#B33646"/><path d="M176.201 379.629l-55.842 10.089 17.777 111.357c18.106 10.088 37.519 18.159 57.915 23.831 5.017-24.158 9.27-64.186 7.58-65.495-2.836-2.181-27.43-79.782-27.43-79.782z" fill="#FFE5DF"/><path opacity=".6" d="M174.292 370.631s10.307 32.556 18.378 56.06l.709 11.889s-6.599 24.103-21.759-4.745c-14.833-28.248-46.899-22.031-48.208-21.759l-4.962-31.356 55.842-10.089z" fill="#ECCBC3"/><path d="M457.702 260.856s-6.381 15.487-11.452 10.524c-5.072-4.962 7.089-24.212 7.089-24.212a110.13 110.13 0 01-4.581 7.689c-2.017 3.054-9.979 15.596-13.851 16.36-5.617 1.091-3.817-5.89-2.672-9.107 2.236-6.381 10.906-17.778 14.887-23.122" stroke="#E1BCB5" stroke-miterlimit="10"/><path d="M422.637 365.996c-8.78-19.905-18.76-52.461-20.832-57.751-2.836-7.308-3.981-30.757-46.353-27.43-38.937 3.054-18.433 1.418-43.082 2.835-6.107.328-11.724.873-16.632 1.473a66.833 66.833 0 01-8.071.491h-19.305c-1.963 0-3.872-.109-5.835-.219-4.417-.272-8.453-.381-12.761-.981-5.78-.818-12.652-1.527-20.45-1.963-24.594-1.418-1.2.436-43.081-2.836-42.373-3.327-43.518 20.123-46.354 27.43-2.072 5.29-11.997 37.792-20.831 57.751-4.199 9.543-7.58 20.832-10.416 32.665h8.671c2.999.219 52.352 3.545 51.915 10.853-.327 5.562 9.98 69.475 15.542 103.286.055.327.927 5.289 1.527 8.234.055.273.164 1.145.273 2.236a267.995 267.995 0 0081.418 12.652c31.411 0 61.623-5.453 89.599-15.379 5.671-36.373 15.16-120.845 14.833-126.135-.491-7.471 47.825-18.487 49.352-18.596h4.254c2.508 0 4.035-2.836 2.563-4.853-1.527-2.236-2.727 3.599-5.944-3.763z" fill="#D84F61"/><path d="M456.993 283.214l-2.945-.273-.055.11c-6.107-4.418-22.522 2.454-27.812 9.87-7.362 10.361-15.105 51.043-20.504 76.565-1.527 7.253-3.763 14.233-4.199 21.65l-3 19.686c-.436 7.744 4.581 14.942 12.107 16.851 2.072.491 4.253.6 6.489.273h.164c4.581-.709 8.016-4.09 10.143-8.29 9.871-19.304 14.888-69.311 18.76-99.414.981-7.471 2.126-13.306 3.708-18.65.545-1.909 1.472-3.927 2.236-5.999l4.908-12.379z" fill="#FFE5DF"/><path d="M403.441 380.447s-6.489 25.085-1.691 35.065" stroke="#E1BCB5" stroke-miterlimit="10"/><path d="M324.695 347.018l-10.143-6.762c-1.472-.982-3.272.545-2.618 2.181l12.161 27.758c.655 1.418 2.672 1.418 3.272-.055l11.616-29.666c.654-1.745-1.418-3.217-2.836-1.963l-9.325 8.344c-.6.545-1.473.599-2.127.163z" stroke="#fff" stroke-width="2" stroke-miterlimit="10"/><path d="M262 205s12.981 13.5 25 0" stroke="#E1BCB5" stroke-width="2" stroke-miterlimit="10"/><path d="M371.375 339.656s8.126 22.577 1.418 56.878zM173.365 353.562s-8.18 18.76-3.708 62.495z" fill="#B33646"/><defs><linearGradient id="paint0_linear" x1="116.787" y1=".077" x2="655.47" y2="67.607" gradientUnits="userSpaceOnUse"><stop stop-color="#9156CD"/><stop offset="1" stop-color="#C296F0"/></linearGradient></defs></svg>