<svg width="23" height="23" fill="none" xmlns="http://www.w3.org/2000/svg"><path d="M19.891 5.17L17.5 2.78a1.815 1.815 0 00-1.287-.534c-.487 0-.945.191-1.289.535l-2.574 2.574a1.816 1.816 0 000 2.576l1.882 1.882a8.845 8.845 0 01-1.808 2.608 8.877 8.877 0 01-2.608 1.815l-1.882-1.883a1.816 1.816 0 00-2.576 0L2.78 14.925a1.817 1.817 0 00-.535 1.29c0 .487.191.945.535 1.289l2.387 2.387a2.952 2.952 0 002.559.823c3.027-.5 6.03-2.11 8.454-4.53 2.421-2.42 4.03-5.42 4.535-8.457a2.956 2.956 0 00-.825-2.556z" fill="url(#paint0_linear)"/><defs><linearGradient id="paint0_linear" x1="7.387" y1="2.246" x2="18.012" y2="18.355" gradientUnits="userSpaceOnUse"><stop stop-color="#F36D7A"/><stop offset="1" stop-color="#C61C2C"/></linearGradient></defs></svg>