<svg width="36" height="36" fill="none" xmlns="http://www.w3.org/2000/svg"><g clip-path="url(#clip0)" fill="#DB525F"><path d="M33.288 18.547h-2.716v-1.9a1.937 1.937 0 00-1.935-1.934h-9.452v-4.385c0-1.032-.839-1.871-1.87-1.871h-2.08V2.6c0-1.434-1.166-2.601-2.6-2.601H6.728a2.603 2.603 0 00-2.601 2.6v5.857h-2.08c-1.03 0-1.87.839-1.87 1.87v7.024a.703.703 0 101.406 0v-7.023c0-.252.213-.465.465-.465h15.266a.47.47 0 01.465.465v16.965H1.583v-3.626a.703.703 0 00-1.406 0v6.799c0 1.032.84 1.873 1.87 1.873h.167v1.35A2.314 2.314 0 004.525 36a2.313 2.313 0 002.31-2.312v-1.35h5.693v1.35A2.313 2.313 0 0014.838 36h18.45a2.539 2.539 0 002.535-2.537V21.084a2.539 2.539 0 00-2.535-2.537zM13.83 8.457H5.533V2.6c0-.659.536-1.195 1.194-1.195h5.908c.658 0 1.194.536 1.194 1.195v5.856zm5.356 7.662h9.452a.53.53 0 01.528.529v1.9h-9.98v-2.429zM5.428 33.69a.905.905 0 01-1.808 0v-1.35h1.808v1.35zm-3.38-2.756a.472.472 0 01-.465-.467v-1.767H17.78v1.767a.472.472 0 01-.465.466H2.048zm13.694 2.755a.905.905 0 11-1.809 0v-1.35h1.81v1.35zm15.46.906H16.964c.119-.278.185-.584.185-.906v-1.35h.165c1.032 0 1.871-.84 1.871-1.872V19.954h12.017v14.64zm3.215-1.13a1.13 1.13 0 01-1.129 1.13h-.68v-14.64h.68a1.13 1.13 0 011.129 1.13v12.38z"/><path d="M5.279 17.296a.703.703 0 000 1.406h8.807a.703.703 0 100-1.406H5.279zM15.49 13.782c0-1.164-.945-2.11-2.108-2.11H5.98a2.112 2.112 0 00-2.108 2.11A2.11 2.11 0 005.98 15.89h7.402a2.11 2.11 0 002.108-2.108zm-2.108.702H5.98a.703.703 0 010-1.406h7.402a.704.704 0 010 1.406zM22.907 25.354l3.482 1.58a.7.7 0 00.93-.35l1.19-2.62a.704.704 0 00-.349-.931l-3.484-1.58a.703.703 0 00-.93.35l-1.189 2.62a.703.703 0 00.35.93zm1.829-2.33l2.203.999-.609 1.34-2.202-1 .608-1.34zM23.867 33.086a2.35 2.35 0 002.348-2.347 2.351 2.351 0 00-2.348-2.35 2.352 2.352 0 00-2.349 2.35 2.351 2.351 0 002.35 2.347zm0-3.29a.943.943 0 010 1.884.943.943 0 010-1.884zM.88 21.213a.705.705 0 000-1.408.703.703 0 00-.703.703v.004c0 .389.315.701.703.701z"/></g><defs><clipPath id="clip0"><path fill="#fff" d="M0 0h36v36H0z"/></clipPath></defs></svg>