<svg width="36" height="36" fill="none" xmlns="http://www.w3.org/2000/svg"><g clip-path="url(#clip0)" fill="#DB525F"><path d="M35.862 34.8a.708.708 0 00-.497-.206.71.71 0 00-.497.206.709.709 0 00-.206.497c0 .185.075.366.206.497a.71.71 0 00.497.206.708.708 0 00.497-.206.708.708 0 00.206-.497.709.709 0 00-.206-.497zM32.766 34.594h-4.602a3.061 3.061 0 00-1.258-4.419l-4.21-2.007a1.523 1.523 0 01-.864-1.372l.008-3.86a2.638 2.638 0 01.777-1.854L25 18.724a6.114 6.114 0 001.81-4.328 6.114 6.114 0 00-2.387-4.83l-4.835-3.684a1.376 1.376 0 00-1.52-.103 1.376 1.376 0 00-1.52.103c-1.712 1.303-4.833 3.685-4.834 3.685a6.113 6.113 0 00-2.387 4.829c0 1.616.66 3.193 1.809 4.326l2.395 2.373c.491.488.774 1.164.774 1.857l.004 3.845c.001.582-.338 1.12-.863 1.37l-4.251 2.027a3.016 3.016 0 00-1.208 4.4H.773a.703.703 0 100 1.406h31.993a.703.703 0 100-1.406zm-10.67-18.816l-.762.75c.032-.184.05-.374.05-.568v-.44a3.318 3.318 0 00-3.314-3.314 3.318 3.318 0 00-3.314 3.314v.44c0 .195.018.386.05.572l-.765-.754a1.953 1.953 0 01-.578-1.382c0-.601.285-1.177.763-1.542l3.097-2.367c.287-.219.537-.478.745-.767.209.289.46.548.746.767l3.097 2.367c.478.365.763.941.763 1.542 0 .516-.211 1.02-.579 1.382zm-2.119.182a1.91 1.91 0 01-1.907 1.907 1.91 1.91 0 01-1.908-1.907v-.44a1.91 1.91 0 011.908-1.908 1.91 1.91 0 011.907 1.908v.44zM9.8 31.463l4.25-2.027a2.936 2.936 0 001.666-2.64l-.005-3.846a4.05 4.05 0 00-1.19-2.854l-2.397-2.374a4.7 4.7 0 01-1.391-3.326c0-1.446.686-2.834 1.835-3.711 0 0 3.078-2.349 4.799-3.658a.698.698 0 00.06.244.697.697 0 00-.062.286c0 .707-.334 1.384-.896 1.813l-3.097 2.367a3.366 3.366 0 00-1.315 2.659c0 .89.364 1.759.997 2.383l1.03 1.015a5.642 5.642 0 003.984 1.634c1.501 0 2.916-.58 3.985-1.634l1.03-1.015a3.367 3.367 0 00.997-2.383c0-1.036-.491-2.03-1.315-2.66L19.668 9.37a2.295 2.295 0 01-.896-1.813.702.702 0 00-.062-.286.703.703 0 00.06-.244c1.72 1.308 4.8 3.657 4.799 3.657a4.698 4.698 0 011.835 3.712 4.7 4.7 0 01-1.393 3.327l-2.383 2.36a4.05 4.05 0 00-1.194 2.85l-.009 3.86a2.935 2.935 0 001.665 2.644l4.21 2.008a1.655 1.655 0 01-1.29 3.043l-5.402-2.015h1.938a.703.703 0 000-1.406h-2.3a.704.704 0 00-.27.054l-7.865 3.28a1.598 1.598 0 01-1.235 0 1.609 1.609 0 01-.076-2.938zm7.791 1.76l3.678 1.37h-6.967l3.289-1.37zM18.07 4.71a.703.703 0 00.703-.702V.703a.703.703 0 10-1.406 0v3.305c0 .388.315.703.703.703zM9.355 6.565a.7.7 0 00.995 0 .703.703 0 000-.995L7.769 2.99a.704.704 0 00-.995.994l2.581 2.58zM5.54 2.458a.707.707 0 00.703-.703.705.705 0 00-1.2-.497.708.708 0 00-.206.497.707.707 0 00.703.703zM26.022 7.036a.7.7 0 00.497-.206l3.758-3.757a.703.703 0 10-.995-.994l-3.757 3.757a.703.703 0 00.497 1.2zM2.28 14.988h4.582a.703.703 0 000-1.406H2.279a.703.703 0 000 1.406zM33.861 13.582H29.28a.703.703 0 000 1.406h4.582a.703.703 0 000-1.406z"/></g><defs><clipPath id="clip0"><path fill="#fff" d="M0 0h36v36H0z"/></clipPath></defs></svg>